<?xml version="1.0" encoding="UTF-8" standalone="no"?>
<!-- Generator: Adobe Illustrator 19.0.0, SVG Export Plug-In . SVG Version: 6.00 Build 0)  -->

<svg
   xmlns:dc="http://purl.org/dc/elements/1.1/"
   xmlns:cc="http://creativecommons.org/ns#"
   xmlns:rdf="http://www.w3.org/1999/02/22-rdf-syntax-ns#"
   xmlns:svg="http://www.w3.org/2000/svg"
   xmlns="http://www.w3.org/2000/svg"
   xmlns:sodipodi="http://sodipodi.sourceforge.net/DTD/sodipodi-0.dtd"
   xmlns:inkscape="http://www.inkscape.org/namespaces/inkscape"
   version="1.1"
   id="Capa_1"
   x="0px"
   y="0px"
   viewBox="0 0 512 512"
   style="enable-background:new 0 0 512 512;"
   xml:space="preserve"
   sodipodi:docname="001-coin.svg"><metadata
     id="metadata49"><rdf:RDF><cc:Work
         rdf:about=""><dc:format>image/svg+xml</dc:format><dc:type
           rdf:resource="http://purl.org/dc/dcmitype/StillImage" /></cc:Work></rdf:RDF></metadata><defs
     id="defs47" /><sodipodi:namedview
     pagecolor="#ffffff"
     bordercolor="#666666"
     borderopacity="1"
     objecttolerance="10"
     gridtolerance="10"
     guidetolerance="10"
     inkscape:pageopacity="0"
     inkscape:pageshadow="2"
     inkscape:window-width="640"
     inkscape:window-height="480"
     id="namedview45"
     showgrid="false" /><g
     id="g6"><g
       id="g4"><path
         d="M165,332c-7.99,0-15-7.477-15-16c0-6.286,3.965-11.953,9.866-14.103c7.7-2.806,16.673,0.999,24.606,10.445    c5.33,6.344,14.79,7.167,21.134,1.839s7.167-14.79,1.839-21.133c-8.109-9.656-17.548-16.293-27.445-19.625V256    c0-8.284-6.716-15-15-15s-15,6.716-15,15v17.572c-0.134,0.047-0.268,0.088-0.401,0.137C131.895,280.157,120,297.153,120,316    c0,11.955,4.597,23.347,12.944,32.079C141.526,357.056,152.911,362,165,362c8.271,0,15,6.729,15,15    c0,6.042-3.596,11.468-9.159,13.825c-6.717,2.844-14.755,0.417-22.059-6.659c-5.951-5.764-15.445-5.614-21.211,0.335    c-5.764,5.95-5.614,15.446,0.336,21.21c6.772,6.561,14.301,11.197,22.093,13.813V437c0,8.284,6.716,15,15,15s15-6.716,15-15    v-17.571c18.295-6.504,30-23.575,30-42.429C210,352.187,189.813,332,165,332z"
         id="path2" /></g></g><g
     id="g12"><g
       id="g10"><path
         d="M463,18.844C435.379,6.692,399.155,0,361,0c-78.082,0-150,28.671-150,75c0,11.591,0,101.714,0,112.545    c-14.791-4.307-30.239-6.545-46-6.545c-43.972,0-85.406,17.376-116.67,48.928C17.164,261.381,0,302.958,0,347    c0,90.981,74.019,165,165,165c30.361,0,59.55-8.159,85.059-23.438C277.958,503.529,317.713,512,361,512    c38.155,0,74.379-6.692,102-18.844c31.598-13.901,49-33.845,49-56.156c0-9.342,0-352.464,0-362    C512,52.688,494.598,32.745,463,18.844z M165,482c-74.439,0-135-60.561-135-135c0-74.991,60.561-136,135-136    c74.99,0,136,61.009,136,136C301,421.439,239.99,482,165,482z M482,437c0,18.348-47.137,45-121,45    c-31.422,0-61.106-5.036-83.63-13.86c1.589-1.46,3.161-2.943,4.703-4.47c13.507-13.384,24.406-28.635,32.467-45.148    C329.443,420.82,345.011,422,361,422c39.443,0,88.356-7.667,121-29.019V437z M482,347c0,18.348-47.137,45-121,45    c-12.237,0-24.166-0.765-35.661-2.246C329.066,375.97,331,361.627,331,347c0-5.889-0.321-11.733-0.935-17.517    c10.104,1,20.445,1.517,30.935,1.517c39.446,0,88.355-7.668,121-29.019V347z M482,256c0,18.348-47.137,45-121,45    c-12.768,0-25.26-0.835-37.274-2.458c-7.785-25.252-21.674-48.495-40.917-67.958C306,237.356,332.938,241,361,241    c39.446,0,88.355-7.668,121-29.019V256z M482,166c0,18.348-47.137,45-121,45c-34.007,0-65.745-5.782-89.367-16.281    C252.737,186.322,241,175.317,241,166v-44.805C273.474,142.481,321.972,150,361,150c39.446,0,88.355-7.668,121-29.019V166z     M361,120c-73.276,0-120-26.255-120-45c0-18.803,46.857-45,120-45c73.863,0,121,26.652,121,45S434.863,120,361,120z"
         id="path8" /></g></g><g
     id="g14" /><g
     id="g16" /><g
     id="g18" /><g
     id="g20" /><g
     id="g22" /><g
     id="g24" /><g
     id="g26" /><g
     id="g28" /><g
     id="g30" /><g
     id="g32" /><g
     id="g34" /><g
     id="g36" /><g
     id="g38" /><g
     id="g40" /><g
     id="g42" /><path
     style="fill:#48aeff;fill-opacity:1;stroke:none;stroke-width:0;stroke-miterlimit:4;stroke-dasharray:none;stroke-opacity:1"
     d="M 356.46781,0.95932203 C 311.15216,2.4892015 261.44597,10.302555 226.78984,41.988983 c -20.08858,17.826643 -11.74698,46.988618 -13.83359,70.381347 -0.5773,24.87052 1.03313,50.85325 -1.55201,75.13136 -40.88292,-8.23312 -85.68033,-7.1185 -122.838985,14.00848 -69.083757,35.78152 -105.800822,124.23117 -78.560394,197.83087 21.983003,66.15059 89.273813,115.94869 159.907849,110.68607 28.18616,0.59212 54.94044,-9.64341 79.84746,-21.87711 45.24087,21.81703 96.64803,23.98709 145.88136,20.84747 38.64511,-5.52973 81.97734,-15.40474 107.23305,-47.7161 11.35457,-17.08162 4.8443,-39.46715 7.18581,-58.66477 -0.0202,-110.79539 1.52971,-221.6417 -0.9909,-332.407279 C 508.03324,41.531234 477.74225,26.217711 454.4589,17.003477 423.23102,5.5263416 389.6532,0.79688418 356.46781,0.95932203 Z m 5.7754,28.41525497 c 39.14843,1.185236 82.15487,6.086146 113.31782,31.995763 11.23911,8.795056 5.82397,24.772608 -4.99578,31.110168 C 434.34351,118.91651 386.64789,121.12003 343.40847,120.08644 308.79464,117.21579 270.27992,111.281 244.37881,86.128814 233.85487,72.476167 248.81909,56.742806 261.03984,50.794069 291.66976,33.963897 327.78568,29.534258 362.24321,29.374577 Z m 119.7161,117.478813 c -1.34274,12.27552 5.04515,27.99093 -8.92796,34.65254 -34.12894,27.33574 -80.69666,29.46026 -122.54756,29.96553 -36.04387,-2.461 -75.92986,-7.37483 -103.87192,-32.31299 -11.40495,-16.53151 -6.93916,-38.63845 -6.32628,-57.48305 12.69179,3.23791 24.88802,12.26723 38.40686,15.04522 47.26341,15.33692 98.42863,13.22498 146.87132,5.32163 19.95314,-3.77212 38.55779,-12.21823 56.39554,-21.66346 2e-5,8.82486 0,17.64972 0,26.47458 z m -313.98728,63.95339 c 53.44803,0.56456 105.08293,34.98058 123.52337,85.6269 28.00844,63.18792 -4.38131,143.4286 -66.45981,172.34768 -29.06794,15.12004 -63.67936,14.99638 -95.21186,9.5339 C 63.357301,461.03914 16.117696,388.14486 32.053033,320.45967 42.945946,262.37939 94.57779,214.25315 154.16695,211.16271 c 4.59234,-0.34792 9.20093,-0.46478 13.80508,-0.35593 z M 481.95931,236.65 c 0.26572,13.58651 1.96604,30.77042 -12.15254,38.47882 -41.49753,25.50918 -92.95021,29.45955 -140.40252,24.62288 -12.90679,-4.40988 -11.87014,-22.33337 -19.80933,-31.83898 -7.80811,-13.59312 -18.01509,-25.57559 -27.47459,-38.01695 59.94001,12.74622 125.55054,14.99398 182.84746,-9.57204 6.43193,-1.3194 19.28823,-15.82643 16.99152,-2.94916 0,6.42514 0,12.85029 0,19.27543 z m -1.55507,65.46187 c 1.72739,17.68326 3.70261,36.84914 -1.27119,54.15253 -14.28285,18.69854 -39.75598,24.66761 -61.40679,30.6822 -29.80879,5.03843 -60.74945,7.0512 -90.82626,3.76696 -6.22661,-3.24213 2.27938,-12.54439 0.86865,-18.04238 2.30593,-14.36718 2.81003,-28.92748 2.5339,-43.45761 43.48307,0.56622 88.27878,0.55821 129.02057,-16.84677 7.70853,-2.11843 13.91295,-7.27858 21.08112,-10.25493 z m 0.7839,91.15678 c 0.45453,17.33678 2.5528,36.61 -0.83822,52.81497 -30.91116,31.08302 -77.88601,35.61459 -119.47959,35.04519 -28.74658,1.04198 -57.86524,-1.77734 -84.77541,-12.49152 14.81819,-15.3692 28.09239,-32.27334 37.88136,-51.32204 33.14315,5.1307 67.3513,3.39762 100.50846,-0.80932 23.44685,-3.99122 45.53938,-12.87999 66.7034,-23.23728 z"
     id="path4545"
     inkscape:connector-curvature="0" /><path
     style="fill:#ffffff;fill-opacity:1;stroke:none;stroke-width:0;stroke-miterlimit:4;stroke-dasharray:none;stroke-opacity:1"
     d="m 164.49322,242.35339 c -14.70759,0.70842 -14.78543,18.74733 -14.83051,29.59322 -3.65146,8.48792 -16.36148,8.90821 -20.03813,18.24153 -11.65896,18.95737 -11.0598,47.79991 9.09322,60.91101 10.86005,11.0159 29.57765,6.08411 39.49576,17.71187 8.80354,12.6336 -8.16035,29.81497 -21.00847,21.94915 -8.34164,-3.3276 -17.73053,-15.79654 -26.57204,-6.65254 -11.21851,7.61144 -4.53847,22.74573 5.83051,27.24576 8.6697,2.94165 15.64968,9.57285 13.98305,19.51271 -1.71885,10.3769 8.73144,26.23186 19.94068,18.41526 15.63701,-6.03308 0.10903,-29.11947 16.46396,-34.75916 22.30559,-12.85139 29.64365,-46.12274 11.07417,-65.37644 -9.40531,-12.42859 -24.97838,-16.51727 -39.47457,-18.15678 -13.89315,-6.86501 -9.12318,-33.47604 7.72457,-30.45339 13.42426,0.41527 20.59171,20.50973 34.47034,15.32627 14.26524,-5.98932 7.04708,-24.12102 -2.85169,-30.57203 -6.81883,-6.94441 -22.3487,-8.5098 -19.37874,-21.47446 1.35065,-10.10892 -1.9007,-21.54261 -13.92211,-21.46198 z"
     id="path4547"
     inkscape:connector-curvature="0" /><path
     style="fill:#ffffff;fill-opacity:1;stroke:none;stroke-width:0;stroke-miterlimit:4;stroke-dasharray:none;stroke-opacity:1"
     d="m 349.95508,2.929661 c -46.03919,1.4914785 -97.72114,10.941768 -129,47.868645 -10.8793,23.31968 -5.30834,50.528114 -7.43038,75.465864 -0.85712,20.11584 0.41588,40.98537 -2.16707,60.68244 -13.96949,0.9193 -28.52371,-4.06799 -42.86864,-2.42202 -53.21532,-2.75865 -105.825251,24.12727 -135.741533,67.99405 -37.6405317,52.60147 -41.1983654,128.22341 -4.135593,182.11864 33.285135,51.8718 97.286546,84.16421 158.931016,72.64687 21.05949,-1.45581 39.55216,-12.79789 59.84864,-16.6511 22.09217,0.45034 41.79055,13.70411 64.05086,14.70763 57.78358,5.52624 122.16819,7.02789 172.02965,-27.42374 14.16355,-9.55084 27.26036,-24.25468 24.53103,-42.66118 1.89251,-117.7687 1.77644,-235.60107 0.31685,-353.373973 C 510.28389,61.916453 499.96648,42.862373 482.96357,32.548304 444.04228,7.2646981 395.26591,2.5754779 349.95508,2.929661 Z m 12.09322,26.105933 c 40.0227,1.549147 85.55939,5.255179 115.81781,34.572034 10.93307,12.825487 -2.7533,29.606992 -15.32629,34.855932 -40.3782,23.61884 -89.2058,23.63934 -134.49999,21.15254 -29.1574,-5.19053 -62.44352,-10.17695 -83.58899,-32.843219 C 233.162,73.483214 247.66911,57.615523 259.57374,51.260169 290.27541,33.568887 327.18559,29.172291 362.0483,29.035594 Z M 482.2856,141.06949 c -0.94492,14.2534 4.98248,34.3602 -10.83899,42.73729 -35.69849,25.47566 -82.01268,28.19496 -124.41101,28.38559 -34.78424,-2.98949 -72.70066,-8.87259 -100.09323,-32.22034 -11.46622,-13.45057 -5.68333,-33.4239 -7.67796,-49.60593 -1.43052,-6.4046 4.56264,-10.51801 9.95339,-6.4322 60.02656,27.89005 130.48125,29.26106 193.66949,11.86864 13.48992,-3.93652 26.18027,-10.07232 39.07627,-15.56779 0.10735,6.94491 0.2147,13.88983 0.32204,20.83474 z m -313.90679,69.94068 c 56.83292,-1.40686 109.12944,40.19634 126.96674,92.98712 19.04566,57.71878 -5.57182,125.69854 -57.24216,157.74594 -30.28456,21.49346 -69.42873,22.32136 -104.86441,18.02965 -63.290054,-15.2007 -111.134348,-79.373 -103.906778,-144.76271 5.567402,-65.68986 64.06497,-125.69561 131.648308,-124 2.4662,-0.0413 4.9321,-0.0336 7.3983,0 z m 312.31779,-0.0212 c 1.19891,18.69706 3.76383,39.00179 -2.43219,57.00848 -18.54725,17.20314 -44.31384,25.67426 -68.91102,30.10593 -26.82995,2.59458 -54.64686,6.39332 -81.2839,1.15677 -15.31229,-15.28593 -21.0452,-37.90607 -35.51317,-54.19351 -2.69713,-4.57556 -8.54385,-10.01602 -9.62666,-14.63699 46.27146,6.42273 94.13033,11.58263 140.38561,1.91102 20.03896,-4.4974 39.59189,-11.1262 57.38133,-21.3517 z m -0.10591,91.50847 c 3.65368,14.70039 1.07374,32.28202 0.39406,47.84324 -4.43344,18.10171 -25.86951,24.60008 -41.17796,30.83049 -36.40138,11.72519 -75.75236,13.5862 -113.54661,9.97035 -5.94929,-5.16627 2.40509,-15.53163 0.56296,-22.22017 1.60703,-13.57752 2.85624,-27.19431 4.27177,-40.79254 49.17994,0.9907 100.68124,-0.89285 145.15254,-24.33475 1.39347,-0.46555 2.90723,-1.13477 4.34324,-1.29662 z m 0.61017,90.79661 c 1.33558,17.9246 0.51961,35.9972 0.75845,53.97881 -29.66057,25.29254 -69.0995,35.08415 -107.45244,33.56944 -32.47004,0.12407 -67.52675,3.13367 -97.30601,-11.84484 10.54867,-17.44803 25.82027,-32.21122 35.67796,-50.39831 48.64648,-1.99511 100.17171,5.22541 145.61017,-16.60594 7.53352,-2.90373 15.1337,-6.24846 22.71187,-8.69916 z"
     id="path4549"
     inkscape:connector-curvature="0" /></svg>