<?xml version="1.0" encoding="iso-8859-1"?>
<!-- Generator: Adobe Illustrator 19.0.0, SVG Export Plug-In . SVG Version: 6.00 Build 0)  -->
<svg version="1.1" id="Capa_1" xmlns="http://www.w3.org/2000/svg" xmlns:xlink="http://www.w3.org/1999/xlink" x="0px" y="0px"
	 viewBox="0 0 512 512" style="enable-background:new 0 0 512 512;" xml:space="preserve">
<g>
	<g>
		<path d="M467,272c-14.604,0-82.403,0-91.971,0C384.867,248.358,390,222.839,390,197C390,89.234,302.913,0,195,0
			C86.775,0,0,89.609,0,197c0,102.477,79.458,186.744,180,194.429c0,7.233,0,65.517,0,75.571c0,24.813,20.187,45,45,45
			c5.927,0,231.553,0,242,0c24.813,0,45-20.187,45-45c0-6.513,0-144.013,0-150C512,292.187,491.813,272,467,272z M127.8,44.483
			c-3.477,5.411-6.782,11.286-9.896,17.611c-4.282,8.696-8.1,18.042-11.442,27.906H68.417
			C84.444,70.609,104.725,54.938,127.8,44.483z M48.612,120h49.519c-4.33,19.552-6.988,40.457-7.834,62H30.665
			C32.626,159.809,38.892,138.854,48.612,120z M48.057,272c-9.378-18.297-15.436-38.563-17.377-60H90.3
			c0.824,20.86,3.365,41.074,7.483,60H48.057z M67.819,302H106c5.274,15.689,12.287,31.487,21.28,45.457
			C104.135,336.997,83.818,321.345,67.819,302z M180,358.266c-19.877-9.831-34.008-35.518-42.111-56.266H180
			C180,322.889,180,338.171,180,358.266z M180,272h-51.464c-4.521-18.614-7.314-38.883-8.212-60H180V272z M180,182h-59.678
			c0.922-21.803,3.843-42.767,8.593-62H180V182z M180,90h-41.625c1.998-5.087,4.143-9.984,6.442-14.653
			C155.01,54.65,167.316,40.293,180,33.844V90z M341.388,120c9.72,18.854,15.986,39.809,17.947,62h-59.633
			c-0.846-21.543-3.503-42.448-7.834-62H341.388z M359.303,211.9c-1.906,20.941-7.787,41.433-17.319,60.1h-49.796
			c4.13-19.012,6.669-39.403,7.499-60.1H359.303z M321.583,90h-38.045c-3.342-9.865-7.16-19.21-11.442-27.906
			c-3.114-6.325-6.419-12.2-9.896-17.611C285.275,54.938,305.556,70.609,321.583,90z M210,33.844
			c12.684,6.449,24.99,20.806,35.183,41.504c2.299,4.669,4.445,9.565,6.442,14.653H210V33.844z M210,120h51.085
			c4.75,19.233,7.671,40.197,8.593,62H210V120z M210,211.9h59.664c-0.908,20.902-3.703,41.362-8.247,60.1
			c-14.646,0-4.153,0-36.417,0c-5.258,0-10.305,0.915-15,2.58V211.9z M210,317c0-8.271,6.729-15,15-15h15v15c0,8.271-6.729,15-15,15
			h-15V317z M240,482h-15c-8.271,0-15-6.729-15-15v-15h15c8.271,0,15,6.729,15,15V482z M482,467c0,8.271-6.729,15-15,15h-15v-15
			c0-8.271,6.729-15,15-15h15V467z M482,422h-15c-24.813,0-45,20.187-45,45v15H270v-15c0-24.813-20.187-45-45-45h-15
			c0-6.893,0-53.533,0-60h15c24.813,0,45-20.187,45-45v-15c8.558,0,143.38,0,152,0v15c0,24.813,20.187,45,45,45h15V422z M482,332
			h-15c-8.271,0-15-6.729-15-15v-15h15c8.271,0,15,6.729,15,15V332z"/>
	</g>
</g>
<g>
	<g>
		<path d="M345,332c-33.084,0-60,26.916-60,60s26.916,60,60,60s60-26.916,60-60S378.084,332,345,332z M345,422
			c-16.542,0-30-13.458-30-30s13.458-30,30-30s30,13.458,30,30S361.542,422,345,422z"/>
	</g>
</g>
<g>
</g>
<g>
</g>
<g>
</g>
<g>
</g>
<g>
</g>
<g>
</g>
<g>
</g>
<g>
</g>
<g>
</g>
<g>
</g>
<g>
</g>
<g>
</g>
<g>
</g>
<g>
</g>
<g>
</g>
</svg>
