<?xml version="1.0" encoding="UTF-8" standalone="no"?>
<svg
   xmlns:dc="http://purl.org/dc/elements/1.1/"
   xmlns:cc="http://creativecommons.org/ns#"
   xmlns:rdf="http://www.w3.org/1999/02/22-rdf-syntax-ns#"
   xmlns:svg="http://www.w3.org/2000/svg"
   xmlns="http://www.w3.org/2000/svg"
   xmlns:sodipodi="http://sodipodi.sourceforge.net/DTD/sodipodi-0.dtd"
   xmlns:inkscape="http://www.inkscape.org/namespaces/inkscape"
   version="1.1"
   viewBox="0 0 512 512"
   enable-background="new 0 0 512 512"
   id="svg6"
   sodipodi:docname="rubin_accent.svg"
   inkscape:version="0.92.2 (5c3e80d, 2017-08-06)">
  <metadata
     id="metadata12">
    <rdf:RDF>
      <cc:Work
         rdf:about="">
        <dc:format>image/svg+xml</dc:format>
        <dc:type
           rdf:resource="http://purl.org/dc/dcmitype/StillImage" />
        <dc:title></dc:title>
      </cc:Work>
    </rdf:RDF>
  </metadata>
  <defs
     id="defs10" />
  <sodipodi:namedview
     pagecolor="#ffffff"
     bordercolor="#666666"
     borderopacity="1"
     objecttolerance="10"
     gridtolerance="10"
     guidetolerance="10"
     inkscape:pageopacity="0"
     inkscape:pageshadow="2"
     inkscape:window-width="1366"
     inkscape:window-height="705"
     id="namedview8"
     showgrid="false"
     inkscape:zoom="0.4609375"
     inkscape:cx="256"
     inkscape:cy="256"
     inkscape:window-x="-8"
     inkscape:window-y="-8"
     inkscape:window-maximized="1"
     inkscape:current-layer="svg6" />
  <g
     id="g4"
     style="fill:#48aeff;fill-opacity:1">
    <path
       d="m421.4,11.9h-330.8l-77,113.4 242.4,375.6 242.4-375.6-77-113.4zm-98.5,122.8l-66.9,301.7-67.9-301.7h134.8zm-125.7-19.8l59.2-76.2 59.2,76.2h-118.4zm138.9-7.3l-58.9-75.9h117.8l-58.9,75.9zm-159.2,1.1l-59.7-77h119.4l-59.7,77zm-21.4,6.2h-110.9l51.7-76.3 59.2,76.3zm12.9,19.8l66.5,297-191.3-297h124.8zm174.2,0h125.9l-193,299.4 67.1-299.4zm124.8-19.8h-110.8l59.2-76.2 51.6,76.2z"
       id="path2"
       style="fill:#48aeff;fill-opacity:1" />
  </g>
</svg>
