<?xml version="1.0" encoding="UTF-8" standalone="no"?>
<!-- Generator: Adobe Illustrator 19.0.0, SVG Export Plug-In . SVG Version: 6.00 Build 0)  -->

<svg
   xmlns:dc="http://purl.org/dc/elements/1.1/"
   xmlns:cc="http://creativecommons.org/ns#"
   xmlns:rdf="http://www.w3.org/1999/02/22-rdf-syntax-ns#"
   xmlns:svg="http://www.w3.org/2000/svg"
   xmlns="http://www.w3.org/2000/svg"
   xmlns:sodipodi="http://sodipodi.sourceforge.net/DTD/sodipodi-0.dtd"
   xmlns:inkscape="http://www.inkscape.org/namespaces/inkscape"
   version="1.1"
   id="Layer_1"
   x="0px"
   y="0px"
   viewBox="0 0 512 512"
   style="enable-background:new 0 0 512 512;"
   xml:space="preserve"
   sodipodi:docname="tools_accent.svg"
   inkscape:version="0.92.2 (5c3e80d, 2017-08-06)"><metadata
     id="metadata163"><rdf:RDF><cc:Work
         rdf:about=""><dc:format>image/svg+xml</dc:format><dc:type
           rdf:resource="http://purl.org/dc/dcmitype/StillImage" /><dc:title></dc:title></cc:Work></rdf:RDF></metadata><defs
     id="defs161" /><sodipodi:namedview
     pagecolor="#ffffff"
     bordercolor="#666666"
     borderopacity="1"
     objecttolerance="10"
     gridtolerance="10"
     guidetolerance="10"
     inkscape:pageopacity="0"
     inkscape:pageshadow="2"
     inkscape:window-width="1366"
     inkscape:window-height="705"
     id="namedview159"
     showgrid="false"
     inkscape:zoom="0.4609375"
     inkscape:cx="256"
     inkscape:cy="256"
     inkscape:window-x="-8"
     inkscape:window-y="-8"
     inkscape:window-maximized="1"
     inkscape:current-layer="Layer_1" /><g
     id="g6"
     style="fill:#48aeff;fill-opacity:1"><g
       id="g4"
       style="fill:#48aeff;fill-opacity:1"><path
         d="M468.32,53.08H43.68C19.595,53.08,0,72.675,0,96.76V415.24c0,24.085,19.595,43.68,43.68,43.68H468.32    c24.085,0,43.68-19.595,43.68-43.68V96.76C512,72.675,492.405,53.08,468.32,53.08z M495.413,415.24    c0,14.939-12.154,27.093-27.093,27.093H43.68c-14.939,0-27.093-12.154-27.093-27.093V211.214h478.825V415.24z M495.413,194.626    H16.587v-54.186h478.825V194.626z M495.413,123.853H16.587V96.76c0-14.939,12.154-27.093,27.093-27.093H468.32    c14.939,0,27.093,12.154,27.093,27.093V123.853z"
         id="path2"
         style="fill:#48aeff;fill-opacity:1" /></g></g><g
     id="g12"><g
       id="g10"><path
         d="M185.227,159.24H43.68c-4.58,0-8.294,3.713-8.294,8.294c0,4.58,3.713,8.294,8.294,8.294h141.546    c4.58,0,8.294-3.713,8.294-8.294C193.521,162.953,189.807,159.24,185.227,159.24z"
         id="path8"
         style="fill:#48aeff;fill-opacity:1" /></g></g><g
     id="g18"
     style="fill:#48aeff;fill-opacity:1"><g
       id="g16"
       style="fill:#48aeff;fill-opacity:1"><path
         d="M256,159.24h-35.387c-4.58,0-8.294,3.713-8.294,8.294c0,4.58,3.713,8.294,8.294,8.294H256c4.58,0,8.294-3.713,8.294-8.294    C264.294,162.953,260.58,159.24,256,159.24z"
         id="path14"
         style="fill:#48aeff;fill-opacity:1" /></g></g><g
     id="g24"
     style="fill:#48aeff;fill-opacity:1"><g
       id="g22"
       style="fill:#48aeff;fill-opacity:1"><path
         d="M326.773,159.24h-35.387c-4.58,0-8.294,3.713-8.294,8.294c0,4.58,3.713,8.294,8.294,8.294h35.387    c4.58,0,8.294-3.713,8.294-8.294C335.067,162.953,331.354,159.24,326.773,159.24z"
         id="path20"
         style="fill:#48aeff;fill-opacity:1" /></g></g><g
     id="g30"
     style="fill:#48aeff;fill-opacity:1"><g
       id="g28"
       style="fill:#48aeff;fill-opacity:1"><path
         d="M397.546,159.24H362.16c-4.58,0-8.294,3.713-8.294,8.294c0,4.58,3.713,8.294,8.294,8.294h35.387    c4.58,0,8.294-3.713,8.294-8.294C405.84,162.953,402.127,159.24,397.546,159.24z"
         id="path26"
         style="fill:#48aeff;fill-opacity:1" /></g></g><g
     id="g36"
     style="fill:#48aeff;fill-opacity:1"><g
       id="g34"
       style="fill:#48aeff;fill-opacity:1"><path
         d="M468.32,159.24h-35.387c-4.58,0-8.294,3.713-8.294,8.294c0,4.58,3.713,8.294,8.294,8.294h35.387    c4.58,0,8.294-3.713,8.294-8.294C476.613,162.953,472.9,159.24,468.32,159.24z"
         id="path32"
         style="fill:#48aeff;fill-opacity:1" /></g></g><g
     id="g42"
     style="fill:#48aeff;fill-opacity:1"><g
       id="g40"
       style="fill:#48aeff;fill-opacity:1"><path
         d="M61.374,88.467h-8.847c-4.58,0-8.294,3.713-8.294,8.294c0,4.58,3.713,8.294,8.294,8.294h8.847    c4.58,0,8.294-3.713,8.294-8.294C69.667,92.18,65.954,88.467,61.374,88.467z"
         id="path38"
         style="fill:#48aeff;fill-opacity:1" /></g></g><g
     id="g48"
     style="fill:#48aeff;fill-opacity:1"><g
       id="g46"
       style="fill:#48aeff;fill-opacity:1"><path
         d="M96.76,88.467h-8.847c-4.58,0-8.294,3.713-8.294,8.294c0,4.58,3.713,8.294,8.294,8.294h8.847    c4.58,0,8.294-3.713,8.294-8.294C105.054,92.18,101.341,88.467,96.76,88.467z"
         id="path44"
         style="fill:#48aeff;fill-opacity:1" /></g></g><g
     id="g54"
     style="fill:#48aeff;fill-opacity:1"><g
       id="g52"
       style="fill:#48aeff;fill-opacity:1"><path
         d="M132.147,88.467H123.3c-4.58,0-8.294,3.713-8.294,8.294c0,4.58,3.713,8.294,8.294,8.294h8.847    c4.58,0,8.294-3.713,8.294-8.294C140.441,92.18,136.727,88.467,132.147,88.467z"
         id="path50"
         style="fill:#48aeff;fill-opacity:1" /></g></g><g
     id="g60"
     style="fill:#48aeff;fill-opacity:1"><g
       id="g58"
       style="fill:#48aeff;fill-opacity:1"><path
         d="M220.613,230.013H43.68c-4.58,0-8.294,3.713-8.294,8.294V415.24c0,4.58,3.713,8.294,8.294,8.294h176.933    c4.58,0,8.294-3.713,8.294-8.294V238.307C228.907,233.726,225.194,230.013,220.613,230.013z M212.32,406.946H51.974v-89.572    H212.32V406.946z M212.32,300.786H51.974V246.6H212.32V300.786z"
         id="path56"
         style="fill:#48aeff;fill-opacity:1" /></g></g><g
     id="g66"
     style="fill:#48aeff;fill-opacity:1"><g
       id="g64"
       style="fill:#48aeff;fill-opacity:1"><path
         d="M468.32,230.013h-88.466c-4.58,0-8.294,3.713-8.294,8.294V415.24c0,4.58,3.713,8.294,8.294,8.294h88.466    c4.58,0,8.294-3.713,8.294-8.294V238.307C476.613,233.726,472.9,230.013,468.32,230.013z M460.026,406.946h-71.879v-89.572h71.879    V406.946z M460.026,300.786h-71.879V246.6h71.879V300.786z"
         id="path62"
         style="fill:#48aeff;fill-opacity:1" /></g></g><g
     id="g72"
     style="fill:#48aeff;fill-opacity:1"><g
       id="g70"
       style="fill:#48aeff;fill-opacity:1"><path
         d="M185.227,265.4H79.067c-4.58,0-8.294,3.713-8.294,8.294c0,4.58,3.713,8.294,8.294,8.294h106.16    c4.58,0,8.294-3.713,8.294-8.294C193.521,269.113,189.807,265.4,185.227,265.4z"
         id="path68"
         style="fill:#48aeff;fill-opacity:1" /></g></g><g
     id="g78"
     style="fill:#48aeff;fill-opacity:1"><g
       id="g76"
       style="fill:#48aeff;fill-opacity:1"><path
         d="M432.933,265.4H415.24c-4.58,0-8.294,3.713-8.294,8.294c0,4.58,3.713,8.294,8.294,8.294h17.693    c4.58,0,8.294-3.713,8.294-8.294C441.227,269.113,437.513,265.4,432.933,265.4z"
         id="path74"
         style="fill:#48aeff;fill-opacity:1" /></g></g><g
     id="g84"
     style="fill:#48aeff;fill-opacity:1"><g
       id="g82"
       style="fill:#48aeff;fill-opacity:1"><path
         d="M432.933,336.173H415.24c-4.58,0-8.294,3.713-8.294,8.294c0,4.58,3.713,8.294,8.294,8.294h17.693    c4.58,0,8.294-3.713,8.294-8.294C441.227,339.886,437.513,336.173,432.933,336.173z"
         id="path80"
         style="fill:#48aeff;fill-opacity:1" /></g></g><g
     id="g90"
     style="fill:#48aeff;fill-opacity:1"><g
       id="g88"
       style="fill:#48aeff;fill-opacity:1"><path
         d="M432.933,371.559H415.24c-4.58,0-8.294,3.713-8.294,8.294c0,4.58,3.713,8.294,8.294,8.294h17.693    c4.58,0,8.294-3.713,8.294-8.294C441.227,375.273,437.513,371.559,432.933,371.559z"
         id="path86"
         style="fill:#48aeff;fill-opacity:1" /></g></g><g
     id="g96"
     style="fill:#48aeff;fill-opacity:1"><g
       id="g94"
       style="fill:#48aeff;fill-opacity:1"><path
         d="M344.466,230.013H256c-4.58,0-8.294,3.713-8.294,8.294V415.24c0,4.58,3.713,8.294,8.294,8.294h88.466    c4.58,0,8.294-3.713,8.294-8.294V238.307C352.76,233.726,349.047,230.013,344.466,230.013z M336.173,406.946h-71.879v-89.572    h71.879V406.946z M336.173,300.786h-71.879V246.6h71.879V300.786z"
         id="path92"
         style="fill:#48aeff;fill-opacity:1" /></g></g><g
     id="g102"
     style="fill:#48aeff;fill-opacity:1"><g
       id="g100"
       style="fill:#48aeff;fill-opacity:1"><path
         d="M309.08,265.4h-17.693c-4.58,0-8.294,3.713-8.294,8.294c0,4.58,3.713,8.294,8.294,8.294h17.693    c4.58,0,8.294-3.713,8.294-8.294C317.374,269.113,313.66,265.4,309.08,265.4z"
         id="path98"
         style="fill:#48aeff;fill-opacity:1" /></g></g><g
     id="g108"
     style="fill:#48aeff;fill-opacity:1"><g
       id="g106"
       style="fill:#48aeff;fill-opacity:1"><path
         d="M309.08,336.173h-17.693c-4.58,0-8.294,3.713-8.294,8.294c0,4.58,3.713,8.294,8.294,8.294h17.693    c4.58,0,8.294-3.713,8.294-8.294C317.374,339.886,313.66,336.173,309.08,336.173z"
         id="path104"
         style="fill:#48aeff;fill-opacity:1" /></g></g><g
     id="g114"
     style="fill:#48aeff;fill-opacity:1"><g
       id="g112"
       style="fill:#48aeff;fill-opacity:1"><path
         d="M309.08,371.559h-17.693c-4.58,0-8.294,3.713-8.294,8.294c0,4.58,3.713,8.294,8.294,8.294h17.693    c4.58,0,8.294-3.713,8.294-8.294C317.374,375.273,313.66,371.559,309.08,371.559z"
         id="path110"
         style="fill:#48aeff;fill-opacity:1" /></g></g><g
     id="g120"
     style="fill:#48aeff;fill-opacity:1"><g
       id="g118"
       style="fill:#48aeff;fill-opacity:1"><path
         d="M185.227,336.173H79.067c-4.58,0-8.294,3.713-8.294,8.294c0,4.58,3.713,8.294,8.294,8.294h106.16    c4.58,0,8.294-3.713,8.294-8.294C193.521,339.886,189.807,336.173,185.227,336.173z"
         id="path116"
         style="fill:#48aeff;fill-opacity:1" /></g></g><g
     id="g126"
     style="fill:#48aeff;fill-opacity:1"><g
       id="g124"
       style="fill:#48aeff;fill-opacity:1"><path
         d="M185.227,371.559H79.067c-4.58,0-8.294,3.713-8.294,8.294c0,4.58,3.713,8.294,8.294,8.294h106.16    c4.58,0,8.294-3.713,8.294-8.294C193.521,375.273,189.807,371.559,185.227,371.559z"
         id="path122"
         style="fill:#48aeff;fill-opacity:1" /></g></g><g
     id="g128" /><g
     id="g130" /><g
     id="g132" /><g
     id="g134" /><g
     id="g136" /><g
     id="g138" /><g
     id="g140" /><g
     id="g142" /><g
     id="g144" /><g
     id="g146" /><g
     id="g148" /><g
     id="g150" /><g
     id="g152" /><g
     id="g154" /><g
     id="g156" /></svg>